<svg xmlns="http://www.w3.org/2000/svg" width="384" height="384" viewBox="0 0 512 512">
  <defs>
    <linearGradient id="gradient" x1="0%" y1="0%" x2="100%" y2="100%">
      <stop offset="0%" stop-color="#6366F1" />
      <stop offset="100%" stop-color="#8B5CF6" />
    </linearGradient>
  </defs>
  <rect width="512" height="512" rx="128" fill="url(#gradient)" />
  <g transform="translate(128, 128) scale(0.5)">
    <path d="M256 96c-54.8 0-99.3 44.5-99.3 99.3v119.4c0 54.8 44.5 99.3 99.3 99.3 54.8 0 99.3-44.5 99.3-99.3V195.3c0-54.8-44.5-99.3-99.3-99.3zm0 32c37.2 0 67.3 30.1 67.3 67.3v119.4c0 37.2-30.1 67.3-67.3 67.3-37.2 0-67.3-30.1-67.3-67.3V195.3c0-37.2 30.1-67.3 67.3-67.3z" fill="white" />
    <path d="M135.2 256c-8.8 0-16 7.2-16 16v32c0 8.8 7.2 16 16 16s16-7.2 16-16v-32c0-8.8-7.2-16-16-16zm241.6 0c-8.8 0-16 7.2-16 16v32c0 8.8 7.2 16 16 16s16-7.2 16-16v-32c0-8.8-7.2-16-16-16z" fill="white" />
    <path d="M256 32c-8.8 0-16 7.2-16 16v48c0 8.8 7.2 16 16 16s16-7.2 16-16V48c0-8.8-7.2-16-16-16zm0 368c-8.8 0-16 7.2-16 16v48c0 8.8 7.2 16 16 16s16-7.2 16-16v-48c0-8.8-7.2-16-16-16z" fill="white" />
    <path d="M256 192c-17.7 0-32 14.3-32 32v64c0 17.7 14.3 32 32 32s32-14.3 32-32v-64c0-17.7-14.3-32-32-32z" fill="white" />
  </g>
</svg>